<?xml version="1.0" standalone="no"?><!DOCTYPE svg PUBLIC "-//W3C//DTD SVG 1.1//EN" "http://www.w3.org/Graphics/SVG/1.1/DTD/svg11.dtd"><svg t="1666770232300" class="icon" viewBox="0 0 1024 1024" version="1.1" xmlns="http://www.w3.org/2000/svg" p-id="1982" xmlns:xlink="http://www.w3.org/1999/xlink" width="200" height="200"><path d="M62.464 795.136c0 15.36 6.656 31.232 17.408 41.984 11.264 11.264 26.624 17.408 41.984 17.408 15.36 0 31.232-6.656 41.984-17.408 11.264-11.264 17.408-26.624 17.408-41.984 0-15.36-6.656-31.232-17.408-41.984-11.264-11.264-26.624-17.408-41.984-17.408-15.36 0-31.232 6.656-41.984 17.408-11.264 10.752-17.408 26.624-17.408 41.984zM62.464 525.824c0 15.36 6.656 31.232 17.408 41.984 11.264 11.264 26.624 17.408 41.984 17.408 15.36 0 31.232-6.656 41.984-17.408 11.264-11.264 17.408-26.624 17.408-41.984 0-15.36-6.656-31.232-17.408-41.984-11.264-11.264-26.624-17.408-41.984-17.408-15.36 0-31.232 6.656-41.984 17.408-11.264 10.752-17.408 26.112-17.408 41.984zM62.464 247.296c0 15.36 6.656 31.232 17.408 41.984 11.264 11.264 26.624 17.408 41.984 17.408 15.36 0 31.232-6.656 41.984-17.408 11.264-11.264 17.408-26.624 17.408-41.984 0-15.36-6.656-31.232-17.408-41.984-11.264-11.264-26.624-17.408-41.984-17.408-15.36 0-31.232 6.656-41.984 17.408-11.264 11.264-17.408 26.624-17.408 41.984zM977.92 247.296c0 12.8-10.24 23.04-23.04 23.04h-701.44c-12.8 0-23.04-10.24-23.04-23.04s10.24-23.04 23.04-23.04h700.928c13.312 0 23.552 10.752 23.552 23.04zM750.592 525.824c0 12.8-10.24 23.04-23.04 23.04H253.44c-12.8 0-23.04-10.24-23.04-23.04s10.24-23.04 23.04-23.04h474.112c12.8 0 23.04 10.24 23.04 23.04zM627.2 795.136c0 12.8-10.24 23.04-23.04 23.04H253.44c-12.8 0-23.04-10.24-23.04-23.04s10.24-23.04 23.04-23.04H604.16c12.8 0 23.04 10.24 23.04 23.04z" p-id="1983"></path></svg>