<svg width="190" height="171" viewBox="0 0 190 171" fill="none" xmlns="http://www.w3.org/2000/svg">
<g clip-path="url(#clip0)">
<path d="M85.3 170.6C130.698 170.6 167.5 133.798 167.5 88.4C167.5 43.0022 130.698 6.2 85.3 6.2C39.9022 6.2 3.09998 43.0022 3.09998 88.4C3.09998 133.798 39.9022 170.6 85.3 170.6Z" fill="#CCCCCC"/>
<path d="M149.3 9C151.509 9 153.3 7.20914 153.3 5C153.3 2.79086 151.509 1 149.3 1C147.091 1 145.3 2.79086 145.3 5C145.3 7.20914 147.091 9 149.3 9Z" fill="#E0E0E0"/>
<path d="M4 82.6C6.20914 82.6 8 80.8091 8 78.6C8 76.3909 6.20914 74.6 4 74.6C1.79086 74.6 0 76.3909 0 78.6C0 80.8091 1.79086 82.6 4 82.6Z" fill="#E0E0E0"/>
<path d="M38.9 8.59999C38.9 8.59999 33 9.19999 31.9 10.3C30.8 11.4 30.2 17.3 30.2 17.3C30.2 17.3 29.6 11.4 28.5 10.3C27.4 9.19999 21.5 8.59999 21.5 8.59999C21.5 8.59999 27.4 7.99999 28.5 6.89999C29.6 5.79999 30.2 -0.100006 30.2 -0.100006C30.2 -0.100006 30.8 5.79999 31.9 6.89999C33 7.99999 38.9 8.59999 38.9 8.59999Z" fill="#E0E0E0"/>
<path d="M91 20.2C91 20.2 86.3 20.7 85.4 21.5C84.5 22.4 84.1 27.1 84.1 27.1C84.1 27.1 83.6 22.3 82.7 21.5C81.8 20.6 77.1 20.2 77.1 20.2C77.1 20.2 81.8 19.7 82.7 18.9C83.6 18 84 13.3 84 13.3C84 13.3 84.5 18 85.3 18.9C86.2 19.8 91 20.2 91 20.2Z" fill="#E0E0E0"/>
<path d="M189.8 66C189.8 66 182.8 66.7 181.5 68C180.2 69.3 179.5 76.3 179.5 76.3C179.5 76.3 178.8 69.3 177.5 68C176.2 66.7 169.2 66 169.2 66C169.2 66 176.2 65.3 177.5 64C178.8 62.7 179.5 55.7 179.5 55.7C179.5 55.7 180.2 62.7 181.5 64C182.8 65.3 189.8 66 189.8 66Z" fill="#E0E0E0"/>
<path d="M51.6 77.9H124.4L142.6 122.1V158.5H33.4V122.1L51.6 77.9Z" fill="white"/>
<path d="M124.4 77.9H51.6V111.7H124.4V77.9Z" fill="white"/>
<path d="M33.4 158.5V122.1H75C75 129.3 80.8 135.1 88 135.1C95.2 135.1 101 129.3 101 122.1H142.6V158.5H33.4Z" fill="white"/>
<path d="M134.8 39L158.2 13L150.4 46.8L134.8 39ZM114 31.2L158.2 13L129.6 39L114 31.2ZM114.8 64.4C115.2 64.8 115.2 65.5 114.8 66C113.8 67.1 112.7 68.2 111.5 69.2C111.1 69.6 110.4 69.5 110 69.1C109.6 68.6 109.6 67.9 110.1 67.5C111.2 66.5 112.2 65.5 113.2 64.4C113.4 64.2 113.7 64.1 114 64.1C114.3 64 114.6 64.1 114.8 64.4ZM104.3 74.4C104 74.6 103.5 74.6 103.2 74.4C102.9 74.2 102.7 73.8 102.7 73.4C102.7 73 103 72.6 103.3 72.4C104.6 71.7 105.8 70.9 106.9 70C107.4 69.7 108.1 69.8 108.4 70.3C108.7 70.8 108.6 71.5 108.2 71.9C106.9 72.9 105.6 73.7 104.3 74.4ZM99.7 70.3C99.1 70.4 98.5 69.9 98.5 69.3C98.4 68 98 66.7 97.3 65.5C97 65 97.1 64.3 97.6 63.9C97.8 63.7 98.1 63.7 98.4 63.7C98.7 63.8 98.9 63.9 99.1 64.2C100.1 65.7 100.6 67.4 100.7 69.1C100.7 69.7 100.3 70.2 99.7 70.3ZM94.2 62.8C93 62.2 91.7 61.7 90.3 61.5C89.9 61.4 89.6 61.2 89.4 60.8C89.3 60.4 89.3 60 89.6 59.7C89.8 59.4 90.2 59.2 90.6 59.3C92.2 59.6 93.7 60.1 95.1 60.8C95.5 61 95.7 61.4 95.7 61.8C95.7 62.2 95.5 62.6 95.2 62.8C95 63.1 94.6 63.1 94.2 62.8ZM91.7 75.9C91.6 76.2 91.4 76.4 91.2 76.6C90.9 76.7 90.6 76.8 90.4 76.7C88.9 76.3 87.4 75.5 86.1 74.6C85.6 74.2 85.5 73.5 85.8 73C86 72.8 86.2 72.6 86.5 72.5C86.8 72.4 87.1 72.5 87.3 72.6C88.4 73.4 89.7 74 91 74.4C91.6 74.7 91.9 75.3 91.7 75.9ZM86.2 61.6C84.9 61.8 83.7 62.3 82.7 63.2C82.4 63.5 82 63.6 81.6 63.5C81.4 63.4 81.2 63.3 81.1 63.2C80.7 62.7 80.7 62 81.1 61.6C82.4 60.4 84 59.7 85.7 59.4C85.9 59.4 86.1 59.4 86.3 59.5C86.9 59.7 87.2 60.4 87 61C86.9 61.2 86.6 61.5 86.2 61.6ZM82.4 71.3C81.3 70.1 80.4 68.6 79.9 67C79.8 66.6 79.9 66.2 80.2 65.9C80.5 65.6 80.9 65.5 81.3 65.6C81.7 65.7 82 66 82.1 66.4C82.5 67.7 83.2 68.9 84.2 69.9C84.6 70.4 84.6 71.1 84.1 71.5C83.9 71.7 83.6 71.8 83.3 71.8C82.9 71.7 82.6 71.5 82.4 71.3ZM116.4 62.5C115.9 62.1 115.9 61.4 116.2 60.9C117.1 59.8 118 58.6 118.9 57.4C119.1 57.2 119.3 57 119.6 57C119.9 57 120.2 57 120.4 57.2C120.9 57.6 121 58.3 120.6 58.8C119.7 60 118.8 61.2 117.8 62.4C117.6 62.6 117.3 62.8 117.1 62.8C116.8 62.8 116.6 62.7 116.4 62.5ZM122.3 55.4C121.9 55.4 121.5 55.1 121.4 54.8C121.2 54.4 121.3 54 121.5 53.6C122.3 52.4 123.1 51.1 123.8 49.8C123.9 49.5 124.2 49.4 124.5 49.3C124.8 49.2 125.1 49.3 125.3 49.4C125.8 49.7 126 50.4 125.7 51C124.9 52.3 124.1 53.7 123.3 54.9C123.1 55.3 122.7 55.5 122.3 55.4ZM126.4 47.5C125.9 47.2 125.7 46.5 126 45.9C126.4 45.1 126.8 44.3 127.2 43.4C127.5 42.9 128.1 42.7 128.6 42.9C129.2 43.2 129.4 43.8 129.2 44.4C128.8 45.3 128.4 46.1 127.9 46.9C127.8 47.2 127.5 47.4 127.3 47.4C127 47.7 126.6 47.7 126.4 47.5ZM137.4 44.2L132.2 52V41.6L137.4 44.2ZM96.5 77.5L96.7 77.1C96.2 77.2 95.7 77.3 95.1 77.3C94.5 77.3 94 76.8 94 76.2C94 75.6 94.4 75.1 95 75C95.9 74.9 96.7 74.8 97.6 74.6C97.7 74.2 97.9 73.8 98 73.4C98.1 73.1 98.3 72.9 98.5 72.7C98.8 72.5 99.1 72.5 99.4 72.6C100 72.8 100.3 73.4 100.2 74C100.2 74.2 100.1 74.3 100.1 74.4C100.2 74.5 100.2 74.5 100.3 74.5C100.7 74.9 100.8 75.7 100.4 76.1C100.3 76.3 100.1 76.4 99.9 76.4C99.8 76.5 99.6 76.5 99.5 76.5C99.3 77 99.1 77.4 98.9 77.9H124.5L142.6 122.1H142.7V158.5H33.4V122.1H33.5L51.6 77.9H96.5C96.5 77.8 96.5 77.7 96.5 77.5ZM124.4 84.4V111.7L128.6 122.1H139.4L124.4 84.4ZM36 149.9V155.9H140V124.7H101C101 131.9 95.2 137.7 88 137.7C80.8 137.7 75 131.9 75 124.7H36V149.9ZM51.6 84.4L36.5 122.1H47.3L51.5 111.7V84.4H51.6ZM50 122.1H77.5V124.7C77.5 130.4 82.2 135.1 87.9 135.1C93.6 135.1 98.3 130.5 98.3 124.7V122.1H125.8L121.6 111.7H54.2L50 122.1ZM54.2 109.1H121.8V80.5H54.2V109.1ZM93.3 86.3C93.1 86.5 92.8 86.7 92.5 86.7C92.2 86.7 91.9 86.6 91.7 86.4C91.3 86 91.2 85.3 91.6 84.8C92.6 83.7 93.5 82.6 94.3 81.3C94.5 81.1 94.7 80.9 95 80.9C95.3 80.9 95.6 80.9 95.8 81.1C96.3 81.5 96.4 82.1 96.1 82.6C95.3 83.9 94.3 85.1 93.3 86.3ZM86.6 92.6C86.4 92.8 86.1 92.8 85.8 92.8C85.5 92.8 85.3 92.6 85.1 92.4C84.7 91.9 84.8 91.2 85.3 90.8C86.5 89.9 87.6 88.9 88.6 87.9C88.8 87.7 89.1 87.6 89.4 87.6C89.7 87.6 90 87.8 90.2 88C90.6 88.5 90.6 89.2 90.1 89.6C88.9 90.6 87.8 91.6 86.6 92.6ZM79.1 97.8C78.8 98 78.5 98 78.3 97.9C78 97.8 77.8 97.6 77.6 97.4C77.3 96.9 77.4 96.2 78 95.8C79.2 95 80.5 94.2 81.7 93.4C81.9 93.2 82.2 93.2 82.5 93.2C82.8 93.3 83 93.4 83.2 93.7C83.5 94.2 83.4 94.9 82.9 95.3C81.7 96.1 80.4 96.9 79.1 97.8ZM71.3 102.2C71 102.3 70.7 102.4 70.5 102.3C70.2 102.2 70 102 69.9 101.7C69.6 101.1 69.8 100.5 70.4 100.1C71.7 99.5 73 98.7 74.3 98C74.6 97.9 74.9 97.8 75.1 97.9C75.4 98 75.6 98.2 75.7 98.4C76 98.9 75.8 99.6 75.3 99.9C73.9 100.8 72.6 101.5 71.3 102.2Z" fill="#999999"/>
</g>
<defs>
<clipPath id="clip0">
<rect width="189.8" height="170.6" fill="white"/>
</clipPath>
</defs>
</svg>
